# Blender 4.4.3
# www.blender.org
o Plane.001
v 7.500000 15.000000 7.500000
v 7.500000 0.000000 7.500000
v 7.500000 15.000000 -7.500000
v 7.500000 0.000000 -7.500000
vn 1.0000 -0.0000 -0.0000
vt 0.000000 0.000000
vt 1.000000 0.000000
vt 1.000000 1.000000
vt 0.000000 1.000000
s 0
f 1/1/1 2/2/1 4/3/1 3/4/1
o Plane.004
v 7.500000 15.000000 7.499999
v 7.500000 0.000000 7.499998
v -7.500000 15.000000 7.500000
v -7.500000 0.000000 7.499999
vn -0.0000 -0.0000 -1.0000
vt 0.000000 0.000000
vt 1.000000 0.000000
vt 1.000000 1.000000
vt 0.000000 1.000000
s 0
f 5/5/2 6/6/2 8/7/2 7/8/2
o Cube
v -1.515228 4.771763 7.499999
v -4.507614 3.771763 6.043575
v -1.515228 0.000000 7.499999
v -3.457224 4.324543 6.569300
v -7.500000 4.771763 7.499999
v -4.908820 4.324543 6.894224
v -7.500000 0.000000 7.499999
v -5.805965 4.324547 6.043575
v -4.908820 4.324543 5.192925
v -1.515228 4.771763 5.102570
v -3.457224 4.324543 5.517849
v -1.666191 4.771763 4.738113
v -1.515228 0.000000 5.102570
v -1.666191 0.000000 4.738113
v -7.500000 4.771763 5.102570
v -7.349037 4.771763 4.738113
v -7.500000 0.000000 5.102570
v -7.349037 0.000000 4.738113
v -4.743435 3.921108 6.543570
v -2.305714 4.496695 4.587151
v -3.890215 3.921109 6.352586
v -2.305714 0.275068 4.587151
v -6.709514 0.275068 4.587151
v -4.126033 4.246025 6.852587
v -2.030647 4.771763 4.587151
v -3.272812 4.246027 6.043575
v -2.030647 0.000000 4.587151
v -3.890215 3.921109 5.734563
v -6.984581 0.000000 4.587151
v -5.270764 3.921111 6.043575
v -5.506591 4.246027 6.543571
v -6.984581 4.771763 4.587151
v -2.305714 4.496695 4.418059
v -4.743435 3.921108 5.543580
v -5.506591 4.246027 5.543578
v -2.305714 0.275068 4.418059
v -6.709514 0.275068 4.418059
v -4.126033 4.246025 5.234563
v -3.127057 4.771763 6.352588
v -6.709514 4.496695 4.418059
v -4.452566 0.275068 4.587151
v -3.127057 4.771763 5.734562
v -4.507614 4.771763 7.043575
v -4.452566 0.275068 4.418059
v -4.562661 4.496695 4.587151
v -3.654384 4.771763 6.852592
v -5.888171 4.771763 6.352588
v -4.562661 0.275068 4.587151
v -5.360845 4.771763 6.852592
v -4.562661 4.496695 4.418059
v -4.452566 0.275068 4.502605
v -5.360845 4.771763 5.234558
v -5.888171 4.771763 5.734562
v -4.562661 0.275068 4.502605
v -4.452566 4.496695 4.418059
v -3.654384 4.771763 5.234558
v -4.452566 4.496695 4.502605
v -4.507614 4.771763 5.043575
v -6.709514 4.496695 4.587151
v -4.452566 4.496695 4.587151
v -4.562661 4.496695 4.502605
v -4.562661 0.275068 4.418059
v -2.305714 4.496695 4.502605
v -6.709514 4.496695 4.502605
v -2.305714 0.275068 4.502605
v -6.709514 0.275068 4.502605
v -4.452773 4.771763 4.587151
v -4.562661 4.771763 4.587151
v -4.452566 0.000000 4.587151
v -4.562661 0.000000 4.587151
vn -0.0000 -0.0000 1.0000
vn -0.0000 -1.0000 -0.0000
vn 1.0000 -0.0000 -0.0000
vn -1.0000 -0.0000 -0.0000
vn 0.3827 -0.0000 -0.9239
vn 0.9239 -0.0000 -0.3827
vn -0.3827 -0.0000 -0.9239
vn -0.9239 -0.0000 -0.3827
vn -0.0000 1.0000 -0.0000
vn -0.0000 -0.0000 -1.0000
vn -0.0707 0.9461 -0.3160
vn -0.5599 0.7680 -0.3111
vn 0.1882 0.9619 -0.1985
vn 0.1882 0.9619 0.1985
vn -0.0707 0.9461 0.3160
vn -0.8260 0.4377 -0.3551
vn -0.0171 0.3304 -0.9437
vn 0.8020 0.4323 -0.4123
vn 0.4354 0.3634 0.8236
vn -0.3995 0.3584 0.8438
vn -0.6798 0.1545 -0.7169
vn 0.2166 0.1289 -0.9677
vn 0.9835 0.1808 -0.0000
vn 0.2166 0.1289 0.9677
vn -0.6798 0.1545 0.7169
vn -0.2144 0.1923 0.9576
vn -0.0171 0.3304 0.9437
vn 0.6697 0.2295 0.7063
vn 0.8020 0.4323 0.4123
vn 0.6697 0.2295 -0.7063
vn 0.4354 0.3634 -0.8236
vn -0.2144 0.1923 -0.9576
vn -0.3995 0.3584 -0.8438
vn -0.9637 0.2672 -0.0000
vn -0.8260 0.4377 0.3551
vn -0.3455 0.7041 0.6205
vn -0.1304 0.8021 0.5828
vn 0.0266 0.6620 0.7491
vn 0.2950 0.6928 0.6580
vn 0.3620 0.8504 0.3818
vn 0.5860 0.7774 0.2288
vn 0.5860 0.7774 -0.2288
vn 0.3620 0.8504 -0.3818
vn 0.2950 0.6928 -0.6580
vn -0.5599 0.7680 0.3111
vn -0.4657 0.8849 -0.0000
vn -0.2351 0.9720 -0.0000
vn 0.0266 0.6620 -0.7491
vn -0.1304 0.8021 -0.5828
vn -0.3455 0.7041 -0.6205
vt 0.375000 0.250000
vt 0.375000 0.500000
vt 0.625000 0.500000
vt 0.625000 0.250000
vt 0.875000 0.500000
vt 0.625000 0.705763
vt 0.631306 0.737043
vt 0.646530 0.750000
vt 0.747701 0.750000
vt 0.752299 0.750000
vt 0.853470 0.750000
vt 0.868694 0.737043
vt 0.875000 0.705763
vt 0.375000 0.044237
vt 0.625000 0.044237
vt 0.375000 0.705763
vt 0.375000 0.978470
vt 0.375000 1.000000
vt 0.625000 1.000000
vt 0.625000 0.978470
vt 0.375000 0.000000
vt 0.625000 0.000000
vt 0.625000 0.771530
vt 0.625000 0.750000
vt 0.375000 0.750000
vt 0.375000 0.771530
vt 0.307670 0.598479
vt 0.307670 0.651522
vt 0.368694 0.737043
vt 0.125000 0.500000
vt 0.125000 0.705763
vt 0.192330 0.651522
vt 0.192330 0.598479
vt 0.214358 0.555565
vt 0.250000 0.539173
vt 0.285642 0.555565
vt 0.131306 0.737043
vt 0.146530 0.750000
vt 0.247709 0.750000
vt 0.252299 0.750000
vt 0.353470 0.750000
vt 0.285642 0.694435
vt 0.250000 0.710827
vt 0.214358 0.694435
vt 0.713376 0.759915
vt 0.713376 0.759915
vt 0.804773 0.750961
vt 0.804773 0.750961
vt 0.194032 0.750234
vt 0.617293 0.769328
vt 0.362372 0.751007
vt 0.280306 0.750630
vt 0.741773 0.760526
vt 0.280306 0.750630
vt 0.708689 0.760374
vt 0.276098 0.750611
vt 0.276098 0.750611
vt 0.708689 0.760374
vt 0.736696 0.761004
vt 0.181819 0.000000
vt 0.136365 0.078731
vt 0.227273 0.078731
vt 0.272728 0.157461
vt 0.363637 0.157461
vt 0.318182 0.078731
vt 0.909091 0.000000
vt 0.863636 0.078731
vt 0.954545 0.078731
vt 0.727273 0.000000
vt 0.681818 0.078731
vt 0.772727 0.078731
vt 0.545455 0.000000
vt 0.500000 0.078731
vt 0.590909 0.078731
vt 0.318182 0.236191
vt 0.136365 0.236191
vt 0.181819 0.157461
vt 0.090910 0.157461
vt 0.863636 0.236191
vt 0.909091 0.157461
vt 0.818182 0.157461
vt 0.681818 0.236191
vt 0.727273 0.157461
vt 0.636364 0.157461
vt 0.500000 0.236191
vt 0.545455 0.157461
vt 0.454546 0.157461
vt 0.227273 0.236191
vt 0.045455 0.236191
vt 0.772727 0.236191
vt 0.590909 0.236191
vt 0.409092 0.236191
vt 0.954545 0.236191
vt 1.000000 0.157461
vt 0.409092 0.078731
vt 0.363637 0.000000
s 1
f 9/9/3 13/10/3 15/11/3 11/12/3
f 11/13/4 15/11/4 25/14/4 26/15/4 37/16/4 78/17/4 77/18/4 35/19/4 22/20/4 21/21/4
f 18/22/5 9/9/5 11/12/5 21/23/5
f 13/10/6 23/24/6 25/14/6 15/11/6
f 33/25/7 20/26/7 22/27/7 35/28/7
f 20/29/8 18/22/8 21/23/8 22/30/8
f 37/31/9 26/32/9 24/33/9 40/34/9
f 26/32/10 25/14/10 23/24/10 24/33/10
f 55/35/11 61/36/11 24/37/11 23/24/11 13/10/11 9/38/11 18/39/11 50/40/11 47/41/11 54/42/11 51/43/11 57/44/11
f 50/40/11 18/39/11 20/45/11 33/46/11 75/47/11 76/48/11 40/49/11 24/37/11 61/36/11 60/50/11 66/51/11 64/52/11
f 49/53/4 59/54/4 73/55/4 30/56/4
f 28/57/12 33/46/12 35/19/12 30/56/12
f 31/58/12 37/31/12 40/49/12 67/59/12
f 67/59/12 40/49/12 76/48/12 53/60/12
f 30/56/12 35/19/12 77/61/12 49/53/12
f 58/62/12 70/63/12 45/58/12 48/59/12
f 67/59/6 72/59/6 74/58/6 31/58/6
f 53/60/11 69/60/11 72/59/11 67/59/11
f 30/56/5 73/55/5 71/57/5 28/57/5
f 41/57/12 44/56/12 52/54/12 63/64/12
f 28/57/11 71/57/11 65/64/11 68/65/11
f 31/58/4 74/58/4 62/63/4 56/66/4
f 53/60/11 68/65/11 65/64/11 69/60/11
f 56/66/4 62/63/4 59/54/4 49/53/4
f 63/64/6 52/64/6 59/64/6 65/64/6
f 59/64/12 62/60/12 69/60/12 65/64/12
f 69/60/5 62/60/5 70/62/5 58/62/5
f 71/57/11 41/57/11 63/64/11 65/64/11
f 69/60/11 58/62/11 48/59/11 72/59/11
f 59/54/4 52/54/4 44/56/4 73/55/4
f 74/58/4 45/58/4 70/63/4 62/63/4
f 73/55/5 44/56/5 41/57/5 71/57/5
f 72/59/6 48/59/6 45/58/6 74/58/6
f 75/47/12 33/46/12 28/57/12 68/65/12
f 76/48/12 75/47/12 68/65/12 53/60/12
f 77/61/12 78/67/12 56/66/12 49/53/12
f 78/67/12 37/31/12 31/58/12 56/66/12
f 10/68/13 27/69/13 29/70/13
f 12/71/14 34/72/14 29/73/14
f 10/74/15 38/75/15 27/76/15
f 10/77/16 42/78/16 38/79/16
f 10/80/17 36/81/17 42/82/17
f 47/83/18 34/72/18 12/71/18
f 51/84/19 32/85/19 14/86/19
f 55/87/20 39/88/20 16/89/20
f 60/90/21 43/91/21 17/92/21
f 64/93/22 46/94/22 19/95/22
f 54/96/23 47/83/23 12/71/23
f 57/97/24 51/84/24 14/86/24
f 55/87/25 16/89/25 61/98/25
f 60/90/26 17/92/26 66/99/26
f 64/93/27 19/95/27 50/100/27
f 66/99/28 46/94/28 64/93/28
f 66/99/29 17/92/29 46/94/29
f 61/98/30 43/91/30 60/90/30
f 61/98/31 16/89/31 43/91/31
f 39/88/32 55/87/32 57/101/32
f 57/101/33 14/102/33 39/88/33
f 51/84/34 54/96/34 32/85/34
f 54/96/35 12/71/35 32/85/35
f 50/100/36 34/72/36 47/83/36
f 50/100/37 19/95/37 34/72/37
f 36/81/38 19/95/38 46/94/38
f 36/81/39 46/94/39 42/82/39
f 42/82/40 46/94/40 17/92/40
f 42/78/41 17/92/41 43/91/41
f 42/78/42 43/91/42 38/79/42
f 38/79/43 43/91/43 16/89/43
f 38/75/44 16/89/44 39/88/44
f 38/75/45 39/88/45 27/76/45
f 27/76/46 39/88/46 14/102/46
f 34/72/47 19/95/47 36/103/47
f 34/72/48 36/103/48 29/73/48
f 29/73/49 36/103/49 10/104/49
f 27/69/50 14/86/50 32/85/50
f 27/69/51 32/85/51 29/70/51
f 29/70/52 32/85/52 12/71/52
o Cube.001
v -7.057683 6.324059 7.500000
v -6.703834 6.793899 7.500000
v -7.057683 13.095996 7.500000
v -6.703834 12.626157 7.500000
v -7.057683 6.324059 7.121833
v -6.703834 6.793899 7.121833
v -7.057683 13.095996 7.121833
v -6.703834 12.626157 7.121833
v -1.957545 6.324059 7.500000
v -2.311394 6.793899 7.500000
v -1.957545 13.095996 7.500000
v -2.311394 12.626157 7.500000
v -1.957545 6.324059 7.121833
v -2.311394 6.793899 7.121833
v -2.311394 12.626157 7.121833
v -1.957545 13.095996 7.121833
vn -1.0000 -0.0000 -0.0000
vn -0.0000 -0.0000 -1.0000
vn 1.0000 -0.0000 -0.0000
vn -0.0000 -0.0000 1.0000
vn -0.0000 -1.0000 -0.0000
vn -0.0000 1.0000 -0.0000
vt 0.375000 0.000000
vt 0.625000 0.000000
vt 0.625000 0.250000
vt 0.375000 0.250000
vt 0.607655 0.482655
vt 0.625000 0.500000
vt 0.375000 0.500000
vt 0.392345 0.482655
vt 0.607655 0.267345
vt 0.392345 0.267345
vt 0.625000 0.750000
vt 0.375000 0.750000
vt 0.392345 0.982655
vt 0.607655 0.982655
vt 0.625000 1.000000
vt 0.375000 1.000000
vt 0.607655 0.767345
vt 0.392345 0.767345
vt 0.125000 0.500000
vt 0.125000 0.750000
vt 0.875000 0.500000
vt 0.875000 0.750000
s 0
f 79/105/53 81/106/53 85/107/53 83/108/53
f 93/109/54 94/110/54 91/111/54 92/112/54
f 91/111/54 83/108/54 85/107/54 94/110/54 93/109/54 86/113/54 84/114/54 92/112/54
f 91/111/55 94/110/55 89/115/55 87/116/55
f 80/117/56 82/118/56 81/119/56 79/120/56
f 80/117/56 79/120/56 87/116/56 89/115/56 81/119/56 82/118/56 90/121/56 88/122/56
f 83/123/57 91/111/57 87/116/57 79/124/57
f 94/110/58 85/125/58 81/126/58 89/115/58
f 82/106/55 80/105/55 84/108/55 86/107/55
f 90/115/53 93/110/53 92/111/53 88/116/53
f 84/123/58 80/124/58 88/116/58 92/111/58
f 82/126/57 86/125/57 93/110/57 90/115/57
o Plane.005
v -6.703834 6.793899 7.310916
v -2.311394 6.793899 7.310916
v -6.703834 12.626157 7.310916
v -2.311394 12.626157 7.310916
vn -0.0000 -0.0000 1.0000
vt 0.000000 0.000000
vt 1.000000 0.000000
vt 1.000000 1.000000
vt 0.000000 1.000000
s 0
f 95/127/59 96/128/59 98/129/59 97/130/59
o Cylinder
v -4.507614 5.870149 6.320462
v -4.507614 5.870149 7.500000
v -4.351248 5.794847 6.320462
v -4.351248 5.794847 7.500000
v -4.312629 5.625644 6.320462
v -4.312629 5.625644 7.500000
v -4.420837 5.489954 6.320462
v -4.420837 5.489954 7.500000
v -4.594391 5.489954 6.320462
v -4.594391 5.489954 7.500000
v -4.702600 5.625644 6.320462
v -4.702600 5.625644 7.500000
v -4.663980 5.794847 6.320462
v -4.663980 5.794847 7.500000
v -4.507614 5.870149 6.517051
v -4.507614 5.870149 6.713641
v -4.507614 5.870149 6.910231
v -4.507614 5.870149 7.106820
v -4.507614 5.870149 7.303410
v -4.351248 5.794847 7.303410
v -4.351248 5.794847 7.106820
v -4.351248 5.794847 6.910231
v -4.351248 5.794847 6.713641
v -4.351248 5.794847 6.517051
v -4.312629 5.625644 7.303410
v -4.312629 5.625644 7.106820
v -4.312629 5.625644 6.910231
v -4.312629 5.625644 6.713641
v -4.312629 5.625644 6.517051
v -4.420837 5.489954 7.303410
v -4.420837 5.489954 7.106820
v -4.420837 5.489954 6.910231
v -4.420837 5.489954 6.713641
v -4.420837 5.489954 6.517051
v -4.594391 5.489954 7.303410
v -4.594391 5.489954 7.106820
v -4.594391 5.489954 6.910231
v -4.594391 5.489954 6.713641
v -4.594391 5.489954 6.517051
v -4.702600 5.625644 7.303410
v -4.702600 5.625644 7.106820
v -4.702600 5.625644 6.910231
v -4.702600 5.625644 6.713641
v -4.702600 5.625644 6.517051
v -4.663980 5.794847 7.303410
v -4.663980 5.794847 7.106820
v -4.663980 5.794847 6.910231
v -4.663980 5.794847 6.713641
v -4.663980 5.794847 6.517051
vn 0.4339 0.9010 -0.0000
vn 0.9749 0.2225 -0.0000
vn 0.7818 -0.6235 -0.0000
vn -0.0000 -1.0000 -0.0000
vn -0.7818 -0.6235 -0.0000
vn -0.0000 -0.0000 1.0000
vn -0.9749 0.2225 -0.0000
vn -0.4339 0.9010 -0.0000
vn -0.0000 -0.0000 -1.0000
vt 1.000000 0.916667
vt 1.000000 1.000000
vt 0.857143 1.000000
vt 0.857143 0.916667
vt 0.714286 1.000000
vt 0.714286 0.916667
vt 0.571429 1.000000
vt 0.571429 0.916667
vt 0.428571 1.000000
vt 0.428571 0.916667
vt 0.285714 1.000000
vt 0.285714 0.916667
vt 0.437640 0.399638
vt 0.250000 0.490000
vt 0.062360 0.399638
vt 0.016017 0.196595
vt 0.145868 0.033767
vt 0.354132 0.033767
vt 0.483983 0.196595
vt 0.142857 1.000000
vt 0.142857 0.916667
vt 0.000000 1.000000
vt 0.000000 0.916667
vt 0.750000 0.490000
vt 0.937640 0.399638
vt 0.983983 0.196595
vt 0.854132 0.033767
vt 0.645868 0.033767
vt 0.516017 0.196595
vt 0.562360 0.399638
vt 0.142857 0.500000
vt 0.142857 0.583333
vt 0.000000 0.583333
vt 0.000000 0.500000
vt 0.142857 0.666667
vt 0.000000 0.666667
vt 0.142857 0.750000
vt 0.000000 0.750000
vt 0.142857 0.833333
vt 0.000000 0.833333
vt 0.285714 0.500000
vt 0.285714 0.583333
vt 0.285714 0.666667
vt 0.285714 0.750000
vt 0.285714 0.833333
vt 0.428571 0.500000
vt 0.428572 0.583333
vt 0.428571 0.666667
vt 0.428571 0.750000
vt 0.428571 0.833333
vt 0.571429 0.500000
vt 0.571429 0.583333
vt 0.571429 0.666667
vt 0.571429 0.750000
vt 0.571429 0.833333
vt 0.714286 0.500000
vt 0.714286 0.583333
vt 0.714286 0.666667
vt 0.714286 0.750000
vt 0.714286 0.833333
vt 0.857143 0.500000
vt 0.857143 0.583333
vt 0.857143 0.666667
vt 0.857143 0.750000
vt 0.857143 0.833333
vt 1.000000 0.500000
vt 1.000000 0.583333
vt 1.000000 0.666667
vt 1.000000 0.750000
vt 1.000000 0.833333
s 0
f 117/131/60 100/132/60 102/133/60 118/134/60
f 118/134/61 102/133/61 104/135/61 123/136/61
f 123/136/62 104/135/62 106/137/62 128/138/62
f 128/138/63 106/137/63 108/139/63 133/140/63
f 133/140/64 108/139/64 110/141/64 138/142/64
f 102/143/65 100/144/65 112/145/65 110/146/65 108/147/65 106/148/65 104/149/65
f 138/142/66 110/141/66 112/150/66 143/151/66
f 143/151/67 112/150/67 100/152/67 117/153/67
f 99/154/68 101/155/68 103/156/68 105/157/68 107/158/68 109/159/68 111/160/68
f 111/161/67 147/162/67 113/163/67 99/164/67
f 147/162/67 146/165/67 114/166/67 113/163/67
f 146/165/67 145/167/67 115/168/67 114/166/67
f 145/167/67 144/169/67 116/170/67 115/168/67
f 144/169/67 143/151/67 117/153/67 116/170/67
f 109/171/66 142/172/66 147/162/66 111/161/66
f 142/172/66 141/173/66 146/165/66 147/162/66
f 141/173/66 140/174/66 145/167/66 146/165/66
f 140/174/66 139/175/66 144/169/66 145/167/66
f 139/175/66 138/142/66 143/151/66 144/169/66
f 107/176/64 137/177/64 142/172/64 109/171/64
f 137/177/64 136/178/64 141/173/64 142/172/64
f 136/178/64 135/179/64 140/174/64 141/173/64
f 135/179/64 134/180/64 139/175/64 140/174/64
f 134/180/64 133/140/64 138/142/64 139/175/64
f 105/181/63 132/182/63 137/177/63 107/176/63
f 132/182/63 131/183/63 136/178/63 137/177/63
f 131/183/63 130/184/63 135/179/63 136/178/63
f 130/184/63 129/185/63 134/180/63 135/179/63
f 129/185/63 128/138/63 133/140/63 134/180/63
f 103/186/62 127/187/62 132/182/62 105/181/62
f 127/187/62 126/188/62 131/183/62 132/182/62
f 126/188/62 125/189/62 130/184/62 131/183/62
f 125/189/62 124/190/62 129/185/62 130/184/62
f 124/190/62 123/136/62 128/138/62 129/185/62
f 101/191/61 122/192/61 127/187/61 103/186/61
f 122/192/61 121/193/61 126/188/61 127/187/61
f 121/193/61 120/194/61 125/189/61 126/188/61
f 120/194/61 119/195/61 124/190/61 125/189/61
f 119/195/61 118/134/61 123/136/61 124/190/61
f 99/196/60 113/197/60 122/192/60 101/191/60
f 113/197/60 114/198/60 121/193/60 122/192/60
f 114/198/60 115/199/60 120/194/60 121/193/60
f 115/199/60 116/200/60 119/195/60 120/194/60
f 116/200/60 117/131/60 118/134/60 119/195/60
o Cylinder.001
v -4.507614 5.382484 6.417117
v -4.507614 5.517425 6.417117
v -4.429482 5.382484 6.454743
v -4.429482 5.517425 6.454743
v -4.410185 5.382484 6.539289
v -4.410185 5.517425 6.539289
v -4.464254 5.382484 6.607090
v -4.464254 5.517425 6.607090
v -4.550974 5.382484 6.607090
v -4.550974 5.517425 6.607090
v -4.605043 5.382484 6.539289
v -4.605043 5.517425 6.539289
v -4.585746 5.382484 6.454743
v -4.585746 5.517425 6.454743
vn 0.4339 -0.0000 -0.9010
vn 0.9749 -0.0000 -0.2225
vn 0.7818 -0.0000 0.6235
vn -0.0000 -0.0000 1.0000
vn -0.7818 -0.0000 0.6235
vn -0.0000 1.0000 -0.0000
vn -0.9749 -0.0000 -0.2225
vn -0.4339 -0.0000 -0.9010
vn -0.0000 -1.0000 -0.0000
vt 1.000000 0.500000
vt 1.000000 1.000000
vt 0.857143 1.000000
vt 0.857143 0.500000
vt 0.714286 1.000000
vt 0.714286 0.500000
vt 0.571429 1.000000
vt 0.571429 0.500000
vt 0.428571 1.000000
vt 0.428571 0.500000
vt 0.285714 1.000000
vt 0.285714 0.500000
vt 0.437640 0.399638
vt 0.250000 0.490000
vt 0.062360 0.399638
vt 0.016017 0.196595
vt 0.145868 0.033767
vt 0.354132 0.033767
vt 0.483983 0.196595
vt 0.142857 1.000000
vt 0.142857 0.500000
vt 0.000000 1.000000
vt 0.000000 0.500000
vt 0.750000 0.490000
vt 0.937640 0.399638
vt 0.983983 0.196595
vt 0.854132 0.033767
vt 0.645868 0.033767
vt 0.516017 0.196595
vt 0.562360 0.399638
s 0
f 148/201/69 149/202/69 151/203/69 150/204/69
f 150/204/70 151/203/70 153/205/70 152/206/70
f 152/206/71 153/205/71 155/207/71 154/208/71
f 154/208/72 155/207/72 157/209/72 156/210/72
f 156/210/73 157/209/73 159/211/73 158/212/73
f 151/213/74 149/214/74 161/215/74 159/216/74 157/217/74 155/218/74 153/219/74
f 158/212/75 159/211/75 161/220/75 160/221/75
f 160/221/76 161/220/76 149/222/76 148/223/76
f 148/224/77 150/225/77 152/226/77 154/227/77 156/228/77 158/229/77 160/230/77
o Cube.002
v -4.312766 3.901906 4.418059
v -4.312766 2.365672 4.418059
v -4.312766 3.901906 4.322747
v -4.312766 2.365672 4.322747
v -4.080495 3.901906 4.418059
v -4.080495 2.365672 4.418059
v -4.080495 3.901906 4.322747
v -4.080495 2.365672 4.322747
v -4.702472 3.901906 4.418059
v -4.702472 2.365672 4.418059
v -4.702472 3.901906 4.322747
v -4.702472 2.365672 4.322747
v -4.934743 3.901906 4.418059
v -4.934743 2.365672 4.418059
v -4.934743 3.901906 4.322747
v -4.934743 2.365672 4.322747
vn -1.0000 -0.0000 -0.0000
vn -0.0000 -0.0000 -1.0000
vn 1.0000 -0.0000 -0.0000
vn -0.0000 -0.0000 1.0000
vn -0.0000 1.0000 -0.0000
vn -0.0000 -1.0000 -0.0000
vt 0.375000 0.000000
vt 0.625000 0.000000
vt 0.625000 0.250000
vt 0.375000 0.250000
vt 0.625000 0.500000
vt 0.375000 0.500000
vt 0.625000 0.750000
vt 0.375000 0.750000
vt 0.625000 1.000000
vt 0.375000 1.000000
vt 0.125000 0.500000
vt 0.125000 0.750000
vt 0.875000 0.500000
vt 0.875000 0.750000
s 0
f 162/231/78 164/234/78 165/233/78 163/232/78
f 164/234/79 168/236/79 169/235/79 165/233/79
f 168/236/80 166/238/80 167/237/80 169/235/80
f 166/238/81 162/240/81 163/239/81 167/237/81
f 164/241/82 162/242/82 166/238/82 168/236/82
f 169/235/83 167/237/83 163/244/83 165/243/83
f 170/231/80 171/232/80 173/233/80 172/234/80
f 172/234/79 173/233/79 177/235/79 176/236/79
f 176/236/78 177/235/78 175/237/78 174/238/78
f 174/238/81 175/237/81 171/239/81 170/240/81
f 172/241/82 176/236/82 174/238/82 170/242/82
f 177/235/83 173/243/83 171/244/83 175/237/83
