{
	"asset":{
		"generator":"Khronos glTF Blender I/O v5.0.21",
		"version":"2.0"
	},
	"scene":0,
	"scenes":[
		{
			"name":"Scene",
			"nodes":[
				0,
				1,
				2,
				3,
				4,
				5,
				6,
				7,
				8,
				9,
				10,
				11
			]
		}
	],
	"nodes":[
		{
			"mesh":0,
			"name":"Cylinder",
			"scale":[
				0.6666666269302368,
				1,
				0.6666666865348816
			],
			"translation":[
				0,
				2.0999999046325684,
				0
			]
		},
		{
			"mesh":1,
			"name":"Cube"
		},
		{
			"mesh":2,
			"name":"Cube.001",
			"scale":[
				1,
				1.0499999523162842,
				0.09000000357627869
			],
			"translation":[
				0,
				1.0499999523162842,
				-0.800000011920929
			]
		},
		{
			"mesh":3,
			"name":"Cube.002",
			"rotation":[
				0,
				0,
				-1,
				0
			],
			"scale":[
				-1,
				-1.0499999523162842,
				-0.09000000357627869
			],
			"translation":[
				0,
				1.0499999523162842,
				0.800000011920929
			]
		},
		{
			"mesh":4,
			"name":"Plane",
			"translation":[
				0,
				2.0999999046325684,
				0
			]
		},
		{
			"mesh":5,
			"name":"Cylinder.001",
			"scale":[
				0.6666666269302368,
				1,
				0.6666666865348816
			],
			"translation":[
				-2,
				2.0999999046325684,
				0
			]
		},
		{
			"mesh":6,
			"name":"Cube.003",
			"translation":[
				-2,
				0,
				0
			]
		},
		{
			"mesh":7,
			"name":"Cube.004",
			"scale":[
				1,
				1.0499999523162842,
				0.09000000357627869
			],
			"translation":[
				-2,
				1.0499999523162842,
				-0.800000011920929
			]
		},
		{
			"mesh":8,
			"name":"Cube.005",
			"rotation":[
				0,
				0,
				-1,
				0
			],
			"scale":[
				-1,
				-1.0499999523162842,
				-0.09000000357627869
			],
			"translation":[
				-2,
				1.0499999523162842,
				0.800000011920929
			]
		},
		{
			"mesh":9,
			"name":"Plane.001",
			"translation":[
				-2,
				2.0999999046325684,
				0
			]
		},
		{
			"mesh":10,
			"name":"Cube.006",
			"rotation":[
				0.7071068286895752,
				0,
				0.7071068286895752,
				0
			],
			"scale":[
				-1,
				-1.0499999523162842,
				-0.09000000357627869
			],
			"translation":[
				-3,
				1.0499999523162842,
				0
			]
		},
		{
			"mesh":11,
			"name":"Cube.007",
			"scale":[
				0.4975000023841858,
				0.8174999952316284,
				0.05000000074505806
			],
			"translation":[
				-2.002500057220459,
				0.8274999856948853,
				0.8899999856948853
			]
		}
	],
	"meshes":[
		{
			"name":"Cylinder",
			"primitives":[
				{
					"attributes":{
						"POSITION":0,
						"NORMAL":1,
						"TEXCOORD_0":2
					},
					"indices":3
				}
			]
		},
		{
			"name":"Cube.001",
			"primitives":[
				{
					"attributes":{
						"POSITION":4,
						"NORMAL":5,
						"TEXCOORD_0":6
					},
					"indices":7
				}
			]
		},
		{
			"name":"Cube.002",
			"primitives":[
				{
					"attributes":{
						"POSITION":8,
						"NORMAL":9,
						"TEXCOORD_0":10
					},
					"indices":7
				}
			]
		},
		{
			"name":"Cube.003",
			"primitives":[
				{
					"attributes":{
						"POSITION":11,
						"NORMAL":12,
						"TEXCOORD_0":13
					},
					"indices":7
				}
			]
		},
		{
			"name":"Plane",
			"primitives":[
				{
					"attributes":{
						"POSITION":14,
						"NORMAL":15,
						"TEXCOORD_0":16
					},
					"indices":17
				}
			]
		},
		{
			"name":"Cylinder.001",
			"primitives":[
				{
					"attributes":{
						"POSITION":18,
						"NORMAL":19,
						"TEXCOORD_0":20
					},
					"indices":3
				}
			]
		},
		{
			"name":"Cube.004",
			"primitives":[
				{
					"attributes":{
						"POSITION":21,
						"NORMAL":22,
						"TEXCOORD_0":23
					},
					"indices":7
				}
			]
		},
		{
			"name":"Cube.005",
			"primitives":[
				{
					"attributes":{
						"POSITION":24,
						"NORMAL":25,
						"TEXCOORD_0":26
					},
					"indices":7
				}
			]
		},
		{
			"name":"Cube.006",
			"primitives":[
				{
					"attributes":{
						"POSITION":27,
						"NORMAL":28,
						"TEXCOORD_0":29
					},
					"indices":30
				}
			]
		},
		{
			"name":"Plane.001",
			"primitives":[
				{
					"attributes":{
						"POSITION":31,
						"NORMAL":32,
						"TEXCOORD_0":33
					},
					"indices":17
				}
			]
		},
		{
			"name":"Cube.007",
			"primitives":[
				{
					"attributes":{
						"POSITION":34,
						"NORMAL":35,
						"TEXCOORD_0":36
					},
					"indices":7
				}
			]
		},
		{
			"name":"Cube.008",
			"primitives":[
				{
					"attributes":{
						"POSITION":37,
						"NORMAL":38,
						"TEXCOORD_0":39
					},
					"indices":7
				}
			]
		}
	],
	"accessors":[
		{
			"bufferView":0,
			"componentType":5126,
			"count":384,
			"max":[
				0.07499998807907104,
				-2.1178276199407264e-07,
				0.07500000298023224
			],
			"min":[
				-0.07500001788139343,
				-0.006000211928039789,
				-0.07500000298023224
			],
			"type":"VEC3"
		},
		{
			"bufferView":1,
			"componentType":5126,
			"count":384,
			"type":"VEC3"
		},
		{
			"bufferView":2,
			"componentType":5126,
			"count":384,
			"type":"VEC2"
		},
		{
			"bufferView":3,
			"componentType":5123,
			"count":756,
			"type":"SCALAR"
		},
		{
			"bufferView":4,
			"componentType":5126,
			"count":24,
			"max":[
				1,
				0,
				1
			],
			"min":[
				-1,
				-2,
				-1
			],
			"type":"VEC3"
		},
		{
			"bufferView":5,
			"componentType":5126,
			"count":24,
			"type":"VEC3"
		},
		{
			"bufferView":6,
			"componentType":5126,
			"count":24,
			"type":"VEC2"
		},
		{
			"bufferView":7,
			"componentType":5123,
			"count":36,
			"type":"SCALAR"
		},
		{
			"bufferView":8,
			"componentType":5126,
			"count":24,
			"max":[
				1,
				1,
				0
			],
			"min":[
				-1,
				-1,
				-2
			],
			"type":"VEC3"
		},
		{
			"bufferView":9,
			"componentType":5126,
			"count":24,
			"type":"VEC3"
		},
		{
			"bufferView":10,
			"componentType":5126,
			"count":24,
			"type":"VEC2"
		},
		{
			"bufferView":11,
			"componentType":5126,
			"count":24,
			"max":[
				1,
				1,
				0
			],
			"min":[
				-1,
				-1,
				-2
			],
			"type":"VEC3"
		},
		{
			"bufferView":12,
			"componentType":5126,
			"count":24,
			"type":"VEC3"
		},
		{
			"bufferView":13,
			"componentType":5126,
			"count":24,
			"type":"VEC2"
		},
		{
			"bufferView":14,
			"componentType":5126,
			"count":24,
			"max":[
				1,
				0.15432283282279968,
				1
			],
			"min":[
				-1,
				0,
				-1
			],
			"type":"VEC3"
		},
		{
			"bufferView":15,
			"componentType":5126,
			"count":24,
			"type":"VEC3"
		},
		{
			"bufferView":16,
			"componentType":5126,
			"count":24,
			"type":"VEC2"
		},
		{
			"bufferView":17,
			"componentType":5123,
			"count":36,
			"type":"SCALAR"
		},
		{
			"bufferView":18,
			"componentType":5126,
			"count":384,
			"max":[
				0.07499998807907104,
				-2.1178276199407264e-07,
				0.07500000298023224
			],
			"min":[
				-0.07500001788139343,
				-0.006000211928039789,
				-0.07500000298023224
			],
			"type":"VEC3"
		},
		{
			"bufferView":19,
			"componentType":5126,
			"count":384,
			"type":"VEC3"
		},
		{
			"bufferView":20,
			"componentType":5126,
			"count":384,
			"type":"VEC2"
		},
		{
			"bufferView":21,
			"componentType":5126,
			"count":24,
			"max":[
				1,
				0,
				1
			],
			"min":[
				-1,
				-2,
				-1
			],
			"type":"VEC3"
		},
		{
			"bufferView":22,
			"componentType":5126,
			"count":24,
			"type":"VEC3"
		},
		{
			"bufferView":23,
			"componentType":5126,
			"count":24,
			"type":"VEC2"
		},
		{
			"bufferView":24,
			"componentType":5126,
			"count":24,
			"max":[
				1,
				1,
				0
			],
			"min":[
				-1,
				-1,
				-2
			],
			"type":"VEC3"
		},
		{
			"bufferView":25,
			"componentType":5126,
			"count":24,
			"type":"VEC3"
		},
		{
			"bufferView":26,
			"componentType":5126,
			"count":24,
			"type":"VEC2"
		},
		{
			"bufferView":27,
			"componentType":5126,
			"count":48,
			"max":[
				1,
				1,
				0
			],
			"min":[
				-1,
				-1,
				-2
			],
			"type":"VEC3"
		},
		{
			"bufferView":28,
			"componentType":5126,
			"count":48,
			"type":"VEC3"
		},
		{
			"bufferView":29,
			"componentType":5126,
			"count":48,
			"type":"VEC2"
		},
		{
			"bufferView":30,
			"componentType":5123,
			"count":84,
			"type":"SCALAR"
		},
		{
			"bufferView":31,
			"componentType":5126,
			"count":24,
			"max":[
				1,
				0.15432283282279968,
				1
			],
			"min":[
				-1,
				0,
				-1
			],
			"type":"VEC3"
		},
		{
			"bufferView":32,
			"componentType":5126,
			"count":24,
			"type":"VEC3"
		},
		{
			"bufferView":33,
			"componentType":5126,
			"count":24,
			"type":"VEC2"
		},
		{
			"bufferView":34,
			"componentType":5126,
			"count":24,
			"max":[
				1,
				1,
				0
			],
			"min":[
				-1,
				-1,
				-2
			],
			"type":"VEC3"
		},
		{
			"bufferView":35,
			"componentType":5126,
			"count":24,
			"type":"VEC3"
		},
		{
			"bufferView":36,
			"componentType":5126,
			"count":24,
			"type":"VEC2"
		},
		{
			"bufferView":37,
			"componentType":5126,
			"count":24,
			"max":[
				1,
				1,
				1
			],
			"min":[
				-1,
				-1,
				-1
			],
			"type":"VEC3"
		},
		{
			"bufferView":38,
			"componentType":5126,
			"count":24,
			"type":"VEC3"
		},
		{
			"bufferView":39,
			"componentType":5126,
			"count":24,
			"type":"VEC2"
		}
	],
	"bufferViews":[
		{
			"buffer":0,
			"byteLength":4608,
			"byteOffset":0,
			"target":34962
		},
		{
			"buffer":0,
			"byteLength":4608,
			"byteOffset":4608,
			"target":34962
		},
		{
			"buffer":0,
			"byteLength":3072,
			"byteOffset":9216,
			"target":34962
		},
		{
			"buffer":0,
			"byteLength":1512,
			"byteOffset":12288,
			"target":34963
		},
		{
			"buffer":0,
			"byteLength":288,
			"byteOffset":13800,
			"target":34962
		},
		{
			"buffer":0,
			"byteLength":288,
			"byteOffset":14088,
			"target":34962
		},
		{
			"buffer":0,
			"byteLength":192,
			"byteOffset":14376,
			"target":34962
		},
		{
			"buffer":0,
			"byteLength":72,
			"byteOffset":14568,
			"target":34963
		},
		{
			"buffer":0,
			"byteLength":288,
			"byteOffset":14640,
			"target":34962
		},
		{
			"buffer":0,
			"byteLength":288,
			"byteOffset":14928,
			"target":34962
		},
		{
			"buffer":0,
			"byteLength":192,
			"byteOffset":15216,
			"target":34962
		},
		{
			"buffer":0,
			"byteLength":288,
			"byteOffset":15408,
			"target":34962
		},
		{
			"buffer":0,
			"byteLength":288,
			"byteOffset":15696,
			"target":34962
		},
		{
			"buffer":0,
			"byteLength":192,
			"byteOffset":15984,
			"target":34962
		},
		{
			"buffer":0,
			"byteLength":288,
			"byteOffset":16176,
			"target":34962
		},
		{
			"buffer":0,
			"byteLength":288,
			"byteOffset":16464,
			"target":34962
		},
		{
			"buffer":0,
			"byteLength":192,
			"byteOffset":16752,
			"target":34962
		},
		{
			"buffer":0,
			"byteLength":72,
			"byteOffset":16944,
			"target":34963
		},
		{
			"buffer":0,
			"byteLength":4608,
			"byteOffset":17016,
			"target":34962
		},
		{
			"buffer":0,
			"byteLength":4608,
			"byteOffset":21624,
			"target":34962
		},
		{
			"buffer":0,
			"byteLength":3072,
			"byteOffset":26232,
			"target":34962
		},
		{
			"buffer":0,
			"byteLength":288,
			"byteOffset":29304,
			"target":34962
		},
		{
			"buffer":0,
			"byteLength":288,
			"byteOffset":29592,
			"target":34962
		},
		{
			"buffer":0,
			"byteLength":192,
			"byteOffset":29880,
			"target":34962
		},
		{
			"buffer":0,
			"byteLength":288,
			"byteOffset":30072,
			"target":34962
		},
		{
			"buffer":0,
			"byteLength":288,
			"byteOffset":30360,
			"target":34962
		},
		{
			"buffer":0,
			"byteLength":192,
			"byteOffset":30648,
			"target":34962
		},
		{
			"buffer":0,
			"byteLength":576,
			"byteOffset":30840,
			"target":34962
		},
		{
			"buffer":0,
			"byteLength":576,
			"byteOffset":31416,
			"target":34962
		},
		{
			"buffer":0,
			"byteLength":384,
			"byteOffset":31992,
			"target":34962
		},
		{
			"buffer":0,
			"byteLength":168,
			"byteOffset":32376,
			"target":34963
		},
		{
			"buffer":0,
			"byteLength":288,
			"byteOffset":32544,
			"target":34962
		},
		{
			"buffer":0,
			"byteLength":288,
			"byteOffset":32832,
			"target":34962
		},
		{
			"buffer":0,
			"byteLength":192,
			"byteOffset":33120,
			"target":34962
		},
		{
			"buffer":0,
			"byteLength":288,
			"byteOffset":33312,
			"target":34962
		},
		{
			"buffer":0,
			"byteLength":288,
			"byteOffset":33600,
			"target":34962
		},
		{
			"buffer":0,
			"byteLength":192,
			"byteOffset":33888,
			"target":34962
		},
		{
			"buffer":0,
			"byteLength":288,
			"byteOffset":34080,
			"target":34962
		},
		{
			"buffer":0,
			"byteLength":288,
			"byteOffset":34368,
			"target":34962
		},
		{
			"buffer":0,
			"byteLength":192,
			"byteOffset":34656,
			"target":34962
		}
	],
	"buffers":[
		{
			"byteLength":34848,
			"uri":"Untitled.bin"
		}
	]
}
